<?xml version="1.0" encoding="utf-8"?>
<svg viewBox="283.098 79.324 448.557 263.023" xmlns="http://www.w3.org/2000/svg">
  <defs>
    <linearGradient gradientUnits="userSpaceOnUse" x1="572.104" y1="86.436" x2="572.104" y2="336.97" id="gradient-0" spreadMethod="pad" gradientTransform="matrix(0.838903, -0.544282, 0.478716, 0.737846, -69.148431, 399.723653)">
      <stop offset="0" style="stop-color: rgb(143, 236, 209);"/>
      <stop offset="1" style="stop-color: rgb(34, 166, 218);"/>
    </linearGradient>
    <linearGradient gradientUnits="userSpaceOnUse" x1="406.67" y1="184.15" x2="406.67" y2="260.537" id="gradient-1" gradientTransform="matrix(0.731329, 0.682025, -0.7757, 0.831776, 280.661477, -241.383396)">
      <stop offset="0" style="stop-color: rgb(234, 162, 162);"/>
      <stop offset="1" style="stop-color: rgb(226, 59, 59);"/>
    </linearGradient>
    <linearGradient gradientUnits="userSpaceOnUse" x1="462.354" y1="266.247" x2="462.354" y2="337.636" id="gradient-2" gradientTransform="matrix(0.934154, 0.356871, -0.340003, 0.889999, 145.241688, -127.860609)">
      <stop offset="0" style="stop-color: rgba(235, 242, 26, 1)"/>
      <stop offset="1" style="stop-color: rgba(152, 157, 9, 1)"/>
    </linearGradient>
    <linearGradient gradientUnits="userSpaceOnUse" x1="387.038" y1="269.817" x2="387.038" y2="317.648" id="gradient-3" gradientTransform="matrix(0.65493, 0.75569, -0.671642, 0.582089, 331.19542, -168.29894)">
      <stop offset="0" style="stop-color: rgb(128, 244, 26);"/>
      <stop offset="1" style="stop-color: rgb(95, 151, 72);"/>
    </linearGradient>
    <linearGradient gradientUnits="userSpaceOnUse" x1="348.131" y1="193.431" x2="348.131" y2="216.989" id="gradient-4" gradientTransform="matrix(0.706425, 0.707788, -0.705038, 0.70368, 247.24436, -185.23399)">
      <stop offset="0" style="stop-color: rgb(140, 139, 139);"/>
      <stop offset="1" style="stop-color: rgba(29, 29, 29, 1)"/>
    </linearGradient>
    <linearGradient gradientUnits="userSpaceOnUse" x1="337.066" y1="225.556" x2="337.066" y2="266.249" id="gradient-5" gradientTransform="matrix(0.730379, 0.683042, -0.563746, 0.602816, 230.027984, -131.258154)">
      <stop offset="0" style="stop-color: rgb(68, 17, 151);"/>
      <stop offset="1" style="stop-color: rgba(165, 165, 165, 1)"/>
    </linearGradient>
    <linearGradient gradientUnits="userSpaceOnUse" x1="321.36" y1="277.671" x2="321.36" y2="334.069" id="gradient-6" gradientTransform="matrix(0.743542, 0.668689, -0.674854, 0.750397, 288.050729, -134.633421)">
      <stop offset="0" style="stop-color: rgb(179, 118, 13);"/>
      <stop offset="1" style="stop-color: rgba(165, 165, 165, 1)"/>
    </linearGradient>
  </defs>
  <path d="M 725.399 247.34 C 725.399 296.546 683.872 336.436 632.646 336.436 C 632.313 336.436 631.98 336.434 631.647 336.431 C 631.522 336.434 631.397 336.435 631.272 336.435 L 526.829 336.97 C 517.44 336.97 509.829 329.359 509.829 319.97 L 509.829 310.824 C 510.075 309.673 510.204 308.48 510.204 307.256 L 510.204 274.491 C 510.204 265.102 502.593 257.491 493.204 257.491 L 468.047 257.491 C 461.224 255.281 456.29 248.874 456.29 241.315 L 456.29 189.573 L 456.004 189.573 C 454.539 181.674 447.613 175.692 439.289 175.692 L 418.808 175.692 C 426.91 125.166 473.274 86.436 529.256 86.436 C 578.607 86.436 620.483 116.535 635.261 158.279 C 685.278 159.609 725.399 198.974 725.399 247.34 Z" style="fill-rule: nonzero; fill: url(#gradient-0); paint-order: fill;"/>
  <path d="M 725.899 247.34 C 725.899 272.049 715.429 294.515 698.579 310.701 C 681.73 326.885 658.358 336.936 632.646 336.936 C 632.311 336.936 526.829 337.47 526.829 337.47 C 522.032 337.448 517.594 335.484 514.455 332.344 C 511.315 329.205 509.351 324.767 509.329 319.97 L 509.329 310.771 L 509.34 310.72 C 509.582 309.594 509.704 274.491 509.704 274.491 C 509.726 269.899 507.885 265.837 504.871 262.824 C 501.858 259.81 497.796 257.969 493.204 257.991 L 467.967 257.991 L 467.893 257.967 C 464.411 256.825 461.338 254.589 459.208 251.706 C 457.078 248.824 455.804 245.178 455.79 241.315 L 455.79 190.073 L 455.586 190.073 L 455.512 189.664 C 454.812 185.798 452.79 182.484 449.897 180.053 C 447.003 177.622 443.36 176.175 439.289 176.192 L 418.221 176.192 L 418.314 175.613 C 422.399 150.259 436.095 127.78 455.761 111.729 C 475.424 95.681 501.176 85.936 529.256 85.936 C 554.01 85.936 576.964 93.509 595.507 106.292 C 614.053 119.076 628.157 136.983 635.617 157.789 C 660.722 158.476 683.093 168.701 699.437 184.815 C 715.783 200.931 725.899 223.053 725.899 247.34 Z M 698.735 185.527 C 682.515 169.535 660.16 159.422 635.248 158.779 L 634.904 158.77 L 634.79 158.446 C 627.44 137.645 613.364 119.816 594.94 107.115 C 576.512 94.412 553.853 86.936 529.256 86.936 C 501.353 86.936 475.933 96.556 456.393 112.504 C 436.856 128.45 423.527 150.259 419.396 175.192 L 439.289 175.192 C 443.542 175.209 447.524 176.753 450.54 179.288 C 453.557 181.822 455.731 185.449 456.496 189.482 L 456.418 189.073 L 456.79 189.073 L 456.79 241.315 C 456.776 245.011 457.969 248.348 460.012 251.112 C 462.054 253.875 464.818 255.915 468.126 256.991 L 493.204 256.991 C 498.001 257.013 502.439 258.977 505.578 262.117 C 508.718 265.256 510.682 269.694 510.704 274.491 C 510.704 274.491 510.572 309.715 510.329 310.876 L 510.329 319.97 C 510.307 324.562 512.148 328.624 515.162 331.637 C 518.175 334.651 522.237 336.492 526.829 336.47 C 526.829 336.47 632.314 335.936 632.646 335.936 C 658.16 335.936 681.164 326.042 697.886 309.98 C 714.606 293.919 724.899 271.837 724.899 247.34 C 724.899 223.261 714.954 201.518 698.735 185.527 Z" style=""/>
  <rect x="366.692" y="184.15" width="79.957" height="76.387" rx="17" ry="17" style="fill: url(#gradient-1); paint-order: fill; fill-rule: nonzero;"/>
  <path d="M 383.692 183.65 L 429.649 183.65 C 434.446 183.672 438.884 185.636 442.023 188.776 C 445.163 191.915 447.127 196.353 447.149 201.15 L 447.149 243.537 C 447.127 248.334 445.163 252.772 442.023 255.911 C 438.884 259.051 434.446 261.015 429.649 261.037 L 383.692 261.037 C 378.895 261.015 374.457 259.051 371.318 255.911 C 368.178 252.772 366.214 248.334 366.192 243.537 L 366.192 201.15 C 366.214 196.353 368.178 191.915 371.318 188.776 C 374.457 185.636 378.895 183.672 383.692 183.65 Z M 372.025 189.483 C 369.011 192.496 367.17 196.558 367.192 201.15 L 367.192 243.537 C 367.17 248.129 369.011 252.191 372.025 255.204 C 375.038 258.218 379.1 260.059 383.692 260.037 L 429.649 260.037 C 434.241 260.059 438.303 258.218 441.316 255.204 C 444.33 252.191 446.171 248.129 446.149 243.537 L 446.149 201.15 C 446.171 196.558 444.33 192.496 441.316 189.483 C 438.303 186.469 434.241 184.628 429.649 184.65 L 383.692 184.65 C 379.1 184.628 375.038 186.469 372.025 189.483 Z" style=""/>
  <rect x="423.804" y="266.247" width="77.101" height="71.389" rx="17" ry="17" style="fill: url(#gradient-2); paint-order: fill; fill-rule: nonzero;"/>
  <path d="M 440.804 265.747 L 483.905 265.747 C 488.702 265.769 493.14 267.733 496.279 270.873 C 499.419 274.012 501.383 278.45 501.405 283.247 L 501.405 320.636 C 501.383 325.433 499.419 329.871 496.279 333.01 C 493.14 336.15 488.702 338.114 483.905 338.136 L 440.804 338.136 C 436.007 338.114 431.569 336.15 428.43 333.01 C 425.29 329.871 423.326 325.433 423.304 320.636 L 423.304 283.247 C 423.326 278.45 425.29 274.012 428.43 270.873 C 431.569 267.733 436.007 265.769 440.804 265.747 Z M 429.137 271.58 C 426.123 274.593 424.282 278.655 424.304 283.247 L 424.304 320.636 C 424.282 325.228 426.123 329.29 429.137 332.303 C 432.15 335.317 436.212 337.158 440.804 337.136 L 483.905 337.136 C 488.497 337.158 492.559 335.317 495.572 332.303 C 498.586 329.29 500.427 325.228 500.405 320.636 L 500.405 283.247 C 500.427 278.655 498.586 274.593 495.572 271.58 C 492.559 268.566 488.497 266.725 483.905 266.747 L 440.804 266.747 C 436.212 266.725 432.15 268.566 429.137 271.58 Z" style=""/>
  <rect x="317.433" y="225.556" width="39.265" height="40.693" rx="9" ry="9" style="fill: url(#gradient-5); paint-order: fill; fill-rule: nonzero;"/>
  <path d="M 326.433 225.056 L 347.698 225.056 C 350.285 225.078 352.724 226.147 354.416 227.838 C 356.107 229.53 357.176 231.969 357.198 234.556 L 357.198 257.249 C 357.176 259.836 356.107 262.275 354.416 263.967 C 352.724 265.658 350.285 266.727 347.698 266.749 L 326.433 266.749 C 323.846 266.727 321.407 265.658 319.716 263.967 C 318.024 262.275 316.955 259.836 316.933 257.249 L 316.933 234.556 C 316.955 231.969 318.024 229.53 319.716 227.838 C 321.407 226.147 323.846 225.078 326.433 225.056 Z M 320.423 228.546 C 318.857 230.111 317.911 232.173 317.933 234.556 L 317.933 257.249 C 317.911 259.632 318.857 261.694 320.423 263.259 C 321.988 264.825 324.05 265.771 326.433 265.749 L 347.698 265.749 C 350.081 265.771 352.143 264.825 353.708 263.259 C 355.274 261.694 356.22 259.632 356.198 257.249 L 356.198 234.556 C 356.22 232.173 355.274 230.111 353.708 228.546 C 352.143 226.98 350.081 226.034 347.698 226.056 L 326.433 226.056 C 324.05 226.034 321.988 226.98 320.423 228.546 Z" style=""/>
  <rect x="336.709" y="193.431" width="22.844" height="23.558" rx="4" ry="4" style="fill: url(#gradient-4); paint-order: fill; fill-rule: nonzero;"/>
  <path d="M 340.709 192.931 L 355.553 192.931 C 356.76 192.953 357.948 193.462 358.735 194.249 C 359.522 195.036 360.031 196.224 360.053 197.431 L 360.053 212.989 C 360.031 214.196 359.522 215.384 358.735 216.171 C 357.948 216.958 356.76 217.467 355.553 217.489 L 340.709 217.489 C 339.502 217.467 338.314 216.958 337.527 216.171 C 336.74 215.384 336.231 214.196 336.209 212.989 L 336.209 197.431 C 336.231 196.224 336.74 195.036 337.527 194.249 C 338.314 193.462 339.502 192.953 340.709 192.931 Z M 338.234 194.956 C 337.573 195.617 337.187 196.429 337.209 197.431 L 337.209 212.989 C 337.187 213.991 337.573 214.803 338.234 215.464 C 338.895 216.125 339.707 216.511 340.709 216.489 L 355.553 216.489 C 356.555 216.511 357.367 216.125 358.028 215.464 C 358.689 214.803 359.075 213.991 359.053 212.989 L 359.053 197.431 C 359.075 196.429 358.689 195.617 358.028 194.956 C 357.367 194.295 356.555 193.909 355.553 193.931 L 340.709 193.931 C 339.707 193.909 338.895 194.295 338.234 194.956 Z" style=""/>
  <rect x="291.733" y="277.671" width="59.254" height="56.398" rx="10" ry="10" style="fill: url(#gradient-6); paint-order: fill; fill-rule: nonzero;"/>
  <path d="M 301.733 277.171 L 340.987 277.171 C 343.851 277.193 346.539 278.374 348.412 280.246 C 350.284 282.119 351.465 284.807 351.487 287.671 L 351.487 324.069 C 351.465 326.933 350.284 329.621 348.412 331.494 C 346.539 333.366 343.851 334.547 340.987 334.569 L 301.733 334.569 C 298.869 334.547 296.181 333.366 294.308 331.494 C 292.436 329.621 291.255 326.933 291.233 324.069 L 291.233 287.671 C 291.255 284.807 292.436 282.119 294.308 280.246 C 296.181 278.374 298.869 277.193 301.733 277.171 Z M 295.015 280.953 C 293.269 282.7 292.211 285.012 292.233 287.671 L 292.233 324.069 C 292.211 326.728 293.269 329.04 295.015 330.787 C 296.762 332.533 299.074 333.591 301.733 333.569 L 340.987 333.569 C 343.646 333.591 345.958 332.533 347.705 330.787 C 349.451 329.04 350.509 326.728 350.487 324.069 L 350.487 287.671 C 350.509 285.012 349.451 282.7 347.705 280.953 C 345.958 279.207 343.646 278.149 340.987 278.171 L 301.733 278.171 C 299.074 278.149 296.762 279.207 295.015 280.953 Z" style=""/>
  <rect x="359.553" y="269.817" width="54.97" height="47.831" rx="13" ry="13" style="fill: url(#gradient-3); paint-order: fill; fill-rule: nonzero;"/>
  <path d="M 372.553 269.317 L 401.523 269.317 C 405.215 269.339 408.653 270.855 411.069 273.271 C 413.484 275.687 415.001 279.125 415.023 282.817 L 415.023 304.648 C 415.001 308.34 413.485 311.778 411.069 314.194 C 408.653 316.609 405.215 318.126 401.523 318.148 L 372.553 318.148 C 368.861 318.126 365.423 316.609 363.007 314.194 C 360.592 311.778 359.075 308.34 359.053 304.648 L 359.053 282.817 C 359.075 279.125 360.592 275.687 363.007 273.271 C 365.423 270.856 368.861 269.339 372.553 269.317 Z M 363.714 273.978 C 361.425 276.268 360.031 279.329 360.053 282.817 L 360.053 304.648 C 360.031 308.136 361.425 311.197 363.714 313.487 C 366.004 315.776 369.065 317.17 372.553 317.148 L 401.523 317.148 C 405.011 317.17 408.072 315.776 410.362 313.487 C 412.651 311.197 414.045 308.136 414.023 304.648 L 414.023 282.817 C 414.045 279.329 412.651 276.268 410.362 273.978 C 408.072 271.689 405.011 270.295 401.523 270.317 L 372.553 270.317 C 369.065 270.295 366.004 271.689 363.714 273.978 Z" style=""/>
</svg>